<svg xmlns="http://www.w3.org/2000/svg" viewBox="0 0 34 30"><path d="M33 0h1v30h-1zM12 3a12 12 0 1012 12A12 12 0 0012 3zm.19 19.86a1.45 1.45 0 01-1.51-1.51 1.43 1.43 0 011.51-1.51 1.47 1.47 0 011.51 1.51 1.49 1.49 0 01-1.51 1.51zm1.73-6.56a.76.76 0 00-.41.79v.41a1.15 1.15 0 01-1.3 1.15c-.68 0-1.32-.32-1.32-1.15v-.75a2.48 2.48 0 011.66-2.53 2.08 2.08 0 001.39-1.94 1.71 1.71 0 00-1.75-1.89A3.35 3.35 0 0010 11.45a1.25 1.25 0 01-.87.32 1.38 1.38 0 01-1.32-1.21 1.77 1.77 0 01.7-1.22 5.15 5.15 0 013.66-1.47 4.22 4.22 0 014.43 4.41 4.28 4.28 0 01-2.68 4.02z" fill="#292929" data-name="Layer 2"/></svg>