<svg xmlns="http://www.w3.org/2000/svg" viewBox="0 0 34.01 30"><g fill="#292929" data-name="Layer 2"><path d="M7 14.9L.16 21.74a2.17 2.17 0 01-.16-.81V9.19zm14.41 7.91a1.92 1.92 0 01-.48.15 1.58 1.58 0 01-.38 0H2.07a2 2 0 01-.82-.17l7-6.95 1 .78a3.43 3.43 0 004.32 0l1-.8 6 6zm1.21-13.62v11.74a2.2 2.2 0 01-.15.77l-6.82-6.82zM22 7.55l-7.51 6.12-1.2 1-.43.36a2.38 2.38 0 01-3 0l-.4-.33-1.2-1L.67 7.55A2.06 2.06 0 012.07 7h18.48a2.06 2.06 0 011.45.55z" fill-rule="evenodd"/><path d="M33.01 0h1v30h-1z"/></g></svg>