<svg xmlns="http://www.w3.org/2000/svg" viewBox="0 0 980.75 291.21"><g data-name="Layer 2"><path d="M44.53 49.93v30.94H33.92V1.33h24.42c16.9 0 27.06 9.05 27.06 24.3s-10.16 24.3-27.06 24.3zm0-39.66V41h14.36c9.83 0 15.69-5.75 15.69-15.36S68.39 10.27 58 10.27zM152 1.33c17.46 0 28 9.05 28 24.3A22.83 22.83 0 01163.72 48l18 32.92h-11.81l-16.46-31.21h-16.57v31.16h-10.61V1.33zm-15.13 8.94V41h15.68c10.5 0 16.79-5.75 16.79-15.36s-6.62-15.36-17.67-15.36zM257.84 0c22.76 0 40.76 17.79 40.76 41.1s-17.67 41.09-40.76 41.09-40.77-17.78-40.77-41.09c0-22.98 17.68-41.1 40.77-41.1zm0 72.36c17.23 0 29.94-13.26 29.94-31.26S275.07 9.83 257.84 9.83s-30 13.26-30 31.27 12.76 31.26 30 31.26zm102.51-11.93c0 14-5.75 21.76-19.33 21.76-4.42 0-8.29-1-10.39-2.21v-9.61a18.81 18.81 0 009.28 2.32c6.41 0 9.83-3.64 9.83-10.38v-61h10.61zm47.5 20.44V1.33h48.83v8.94h-38.23v25.85h32.26v9h-32.26v26.8h39.88v9zM557 15.8a52.21 52.21 0 00-23.64-6c-18.12 0-31.15 13.26-31.15 31.27s13 31.26 31.15 31.26a52.88 52.88 0 0024.2-5.86v10.09c-2.66 1.54-11.6 5.63-24.2 5.63-24.08 0-41.87-17.45-41.87-41.09S509.26 0 533.34 0A50.07 50.07 0 01557 5.74zm68.47-5.53v70.6h-10.61v-70.6h-24.19V1.33h59.1v8.94zM127.82 274.53q5.4 8.58 9.84 12.24v.39H94.08v-.39q3.09-2.31 3.09-8.87 0-6.16-3.09-14.84l-1.73-4.63H42.61l-1.74 4.63a40.64 40.64 0 00-3.08 14.65q0 6.75 2.7 9.06v.39H0v-.39q4.44-3.86 9.74-12.34a95 95 0 009-18.89l27.57-79.43a30.09 30.09 0 001.69-9.45 19.23 19.23 0 00-1.55-7.9 13.9 13.9 0 00-3.66-5.21v-.39h51.1v.39a16.2 16.2 0 00-3.66 5.3 18.61 18.61 0 00-1.54 7.81 30.06 30.06 0 001.73 9.45l28.34 79.43a94.11 94.11 0 009.06 18.99zm-64.58-77.12q-2.51 8.78-7.14 21.69L49 239.54h37l-7.15-20.44q-4.85-13.87-7.32-22.17a118.53 118.53 0 01-3.86-18.12h-.77a117.78 117.78 0 01-3.66 18.6zm206.48 86.28v.38l-39.52 7.14a110.32 110.32 0 00-9.83-21.4l-29.89-51.09h9.26q12.72 0 19.28-5.69t6.55-18.22q0-10.6-6.75-16.77t-19.08-6l-13.5.19V259q0 10.41 2.89 17.64t6.75 10.12v.39h-46.46v-.39c2.82-1.8 5.27-5.17 7.32-10.12s3.09-11.09 3.09-18.41v-76.92q0-10.59-3.09-17.83c-2.05-4.82-4.5-8.13-7.32-9.93v-.39h54.75q22.94 0 35.86 10.9T253 193.84q0 15-6.85 24.59T226.73 232l17.93 29.11q11.18 17.94 25.06 22.58zm37.21-2.61a60.81 60.81 0 01-23.71-24.67q-8.3-15.72-8.29-35.38 0-21.4 9-37.4A60.83 60.83 0 01309.24 159q16.39-8.56 38.18-8.57a119.43 119.43 0 0133.93 4.82l3.08 33.35-.38.19a37.23 37.23 0 00-15.52-13.49 48.9 48.9 0 00-21.3-4.63q-20.25 0-31.91 13t-11.67 35.43q0 22.76 10.7 36.63t30.37 13.88q14.83 0 25.06-5.49A57.36 57.36 0 00388.1 248l.38.19-4.62 34.51a123 123 0 01-41.07 7.33q-20.43.02-35.86-8.95zm217.86-6.55q5.4 8.58 9.83 12.24v.39h-43.57v-.39q3.07-2.31 3.08-8.87 0-6.16-3.08-14.84l-1.74-4.63h-49.74l-1.73 4.63a40.45 40.45 0 00-3.09 14.65q0 6.75 2.7 9.06v.39H397v-.39q4.44-3.86 9.74-12.34a95.56 95.56 0 009-18.89l27.57-79.43a30.35 30.35 0 001.73-9.45 19.23 19.23 0 00-1.54-7.9 13.9 13.9 0 00-3.66-5.21v-.39h51.09v.39a16.07 16.07 0 00-3.67 5.3 18.61 18.61 0 00-1.54 7.81 30.09 30.09 0 001.74 9.45l28.34 79.43a94.11 94.11 0 008.99 18.99zm-64.59-77.12q-2.51 8.78-7.13 21.69l-7.14 20.44h37l-7.13-20.44q-4.83-13.87-7.33-22.17a117.37 117.37 0 01-3.85-18.12h-.77a118.92 118.92 0 01-3.65 18.6zm86.18 89.36q4.25-2.89 7.33-10.22t3.08-18.31v-77.12a49.49 49.49 0 00-2.7-16.29q-2.7-7.82-7.71-11.28v-.39h43.76a29.61 29.61 0 001.93 7.23 80.58 80.58 0 006 11.28l27.76 46.66q8.1 13.69 17.74 38.17h.77a230.37 230.37 0 01-3.08-39.71v-34.71q0-11.18-2.8-18.5t-7-10v-.39H676v.39q-4.25 2.7-7.33 10.12t-3.08 18.41v76.16q0 11 3.08 18.41T676 286.8v.39h-40.74a135.27 135.27 0 00-9.64-18.32l-27.19-44.15A192 192 0 01587.25 204a229.47 229.47 0 01-8.87-23.24h-.77a227.31 227.31 0 012.8 22.56q.68 10 .67 22.17v32.78q0 11.17 2.8 18.51t7 10v.39h-44.5zm156.16 0q4.25-2.89 7.33-10.22t3.13-18.31v-76.16q0-11.18-3.09-18.41t-7.33-10.12v-.39H750v.39q-4.25 2.89-7.32 10.22t-3.09 18.31v76.16q0 11.17 3.09 18.41t7.32 10.12v.39h-47.46zm91.29 1.23a51.78 51.78 0 01-16.09-5.68L774.46 250l.38-.19q8.1 10.8 17.45 15.51a45.6 45.6 0 0020.92 4.68q23.91 0 23.91-17.35a17 17 0 00-3.28-10.51 25.62 25.62 0 00-8.2-7 136.41 136.41 0 00-13.39-6.17 126.39 126.39 0 01-18.42-9 37.82 37.82 0 01-12.05-12.24q-5-7.9-5-20.44a32.54 32.54 0 015.5-18.22 38.25 38.25 0 0115.9-13.4q10.41-5 24.87-5a120.39 120.39 0 0130.27 4.05l2.51 31.62h-.39Q849.66 177.46 842 174a40.58 40.58 0 00-17-3.48q-22.17 0-22.17 14.84a13.54 13.54 0 003 8.87 24.06 24.06 0 007.52 6.07q4.52 2.41 12.82 5.88a137.4 137.4 0 0119.28 9.45 40.77 40.77 0 0112.91 13.11q5.4 8.49 5.4 22a37.29 37.29 0 01-5.49 20q-5.51 8.87-16.49 14.07t-26.6 5.21a106.55 106.55 0 01-21.35-2.02zm186.92-101.1l-.39.2a28.74 28.74 0 00-25.06-14.27h-14.46v83.87q0 11.76 3.37 19.57t8.39 10.5v.39h-49.93v-.39q4.62-2.7 8.19-10.7t3.57-19.37v-83.87h-14.66a28.74 28.74 0 00-25.06 14.27l-.38-.2 3.27-35.28a204.33 204.33 0 0026.4 1.54h47a204.17 204.17 0 0026.41-1.54z" fill="#fff" data-name="Layer 1"/></g></svg>