<svg xmlns="http://www.w3.org/2000/svg" viewBox="0 0 420.09 420.09"><defs><style>.cls-1{fill:#fff}</style></defs><g id="Layer_2" data-name="Layer 2"><g id="Layer_1-2" data-name="Layer 1"><path class="cls-1" d="M203 115l34 72.18a75.58 75.58 0 0021.07-18.35l-46.28-112.3-59.17 124.09a73.91 73.91 0 0014.43 9.21zm70.19 134.53l-.8.53 54.43 84.5-35.3-99.78a154.47 154.47 0 01-18.33 14.75zM125.57 237.8l-41.84 87.83 56.33-78.57c-2.3-1.28-4.57-2.63-6.79-4.05-2.63-1.62-5.21-3.38-7.7-5.21z"/><path class="cls-1" d="M303.15 134.32a99.13 99.13 0 00-39.26-61.08 1.14 1.14 0 00-1.44 1.76 85.42 85.42 0 11-126.71 11.1 1.12 1.12 0 00-.2-1.57 1.13 1.13 0 00-1.49.1 99.55 99.55 0 10169.1 49.69z"/><path class="cls-1" d="M417.87 179.73C401.16 65.13 294.32-14.45 179.73 2.2S-14.45 125.75 2.2 240.36s123.55 194.23 238.2 177.52 194.18-123.56 177.47-238.15zm-181 214.34C135.4 408.86 40.78 338.35 26 236.88S81.79 40.81 183.2 26s196.07 55.79 210.87 157.2-55.72 196.07-157.19 210.87z"/></g></g></svg>