<svg xmlns="http://www.w3.org/2000/svg" viewBox="0 0 1460.45 420.09"><defs><style>.cls-1{fill:#fff}</style></defs><g id="Layer_2" data-name="Layer 2"><g id="Layer_1-2" data-name="Layer 1"><path class="cls-1" d="M203 115l34 72.18a75.58 75.58 0 0021.07-18.35l-46.28-112.3-59.17 124.09a73.91 73.91 0 0014.43 9.21zm70.19 134.53l-.8.53 54.43 84.5-35.3-99.78a154.47 154.47 0 01-18.33 14.75zM125.57 237.8l-41.84 87.83 56.33-78.57c-2.3-1.28-4.57-2.63-6.79-4.05-2.63-1.62-5.21-3.38-7.7-5.21z"/><path class="cls-1" d="M303.15 134.32a99.13 99.13 0 00-39.26-61.08 1.14 1.14 0 00-1.44 1.76 85.42 85.42 0 11-126.71 11.1 1.12 1.12 0 00-.2-1.57 1.13 1.13 0 00-1.49.1 99.55 99.55 0 10169.1 49.69z"/><path class="cls-1" d="M417.87 179.73C401.16 65.13 294.32-14.45 179.73 2.2S-14.45 125.75 2.2 240.36s123.55 194.23 238.2 177.52 194.18-123.56 177.47-238.15zm-181 214.34C135.4 408.86 40.78 338.35 26 236.88S81.79 40.81 183.2 26s196.07 55.79 210.87 157.2-55.72 196.07-157.19 210.87zm287.35-269.45v30.93h-10.6V76H538c16.9 0 27.07 9.06 27.07 24.3s-10.14 24.32-27.07 24.32zm0-39.66v30.71h14.36c9.84 0 15.69-5.74 15.69-15.36S548.09 85 537.7 85zM631.71 76c17.45 0 27.95 9.06 27.95 24.3a22.82 22.82 0 01-16.24 22.32l18 32.92H649.6l-16.46-31.14h-16.57v31.15H606V76zm-15.14 9v30.71h15.69c10.49 0 16.79-5.74 16.79-15.36S642.42 85 631.38 85zm120.96-10.32c22.76 0 40.77 17.79 40.77 41.1s-17.68 41.1-40.77 41.1-40.76-17.79-40.76-41.1c0-22.98 17.68-41.1 40.76-41.1zm0 72.36c17.24 0 29.94-13.25 29.94-31.26s-12.7-31.26-29.94-31.26-30 13.25-30 31.26 12.77 31.22 30 31.22zm102.52-11.93c0 14-5.75 21.77-19.34 21.77a22.39 22.39 0 01-10.38-2.21v-9.61a18.89 18.89 0 009.28 2.32c6.41 0 9.83-3.65 9.83-10.39V76h10.61zm47.49 20.44V76h48.83v9h-38.22v25.85h32.26v9h-32.26v26.75H938v9zm149.14-65.07a52.22 52.22 0 00-23.64-6c-18.12 0-31.16 13.25-31.16 31.26S994.92 147 1013 147a53 53 0 0024.19-5.85v10.05c-2.65 1.55-11.6 5.64-24.19 5.64-24.09 0-41.87-17.46-41.87-41.1S989 74.68 1013 74.68a49.91 49.91 0 0123.64 5.75zm68.49-5.48v70.59h-10.61V85h-24.19v-9h59.1v9zM607.52 349.21q5.4 8.6 9.83 12.25v.38h-43.57v-.38c2.06-1.55 3.09-4.5 3.09-8.87q0-6.16-3.09-14.85l-1.73-4.62H522.3l-1.73 4.62a40.5 40.5 0 00-3.09 14.66c0 4.5.9 7.51 2.7 9.06v.38H479.7v-.38q4.43-3.85 9.73-12.34a95.36 95.36 0 009-18.9L526 250.79a30.35 30.35 0 001.73-9.45 19.23 19.23 0 00-1.54-7.9 14 14 0 00-3.66-5.21v-.38h51.09v.38a16 16 0 00-3.66 5.31 18.56 18.56 0 00-1.55 7.8 30.09 30.09 0 001.74 9.45l28.34 79.43a93.85 93.85 0 009.03 18.99zm-64.59-77.11q-2.5 8.77-7.13 21.69l-7.13 20.43h37l-7.13-20.43q-4.81-13.89-7.33-22.18a118 118 0 01-3.85-18.12h-.77a117.68 117.68 0 01-3.66 18.61zm206.49 86.27v.39l-39.53 7.13a110.32 110.32 0 00-9.83-21.4l-29.88-51.09h9.25q12.74 0 19.28-5.69t6.56-18.22q0-10.59-6.75-16.77t-19.09-6l-13.49.2v86.75q0 10.41 2.89 17.64c1.93 4.82 4.17 8.2 6.75 10.13v.38h-46.47v-.38q4.25-2.7 7.33-10.13t3.08-18.41V256q0-10.6-3.08-17.84c-2.06-4.82-4.5-8.12-7.33-9.93v-.38h54.76q22.93 0 35.86 10.89t12.91 29.79q0 15-6.84 24.58t-19.38 13.59l17.93 29.11q11.19 17.94 25.07 22.56zm37.21-2.6a60.86 60.86 0 01-23.72-24.68q-8.28-15.7-8.29-35.38 0-21.39 9-37.4a60.63 60.63 0 0125.35-24.58q16.38-8.58 38.17-8.58a119.81 119.81 0 0133.91 4.85l3.08 33.35-.38.2A37.38 37.38 0 00848.23 250a49.12 49.12 0 00-21.31-4.63q-20.24 0-31.91 13t-11.66 35.38q0 22.74 10.7 36.63t30.37 13.88q14.83 0 25.06-5.5a57.19 57.19 0 0018.31-16.09l.39.19-4.63 34.51a123.26 123.26 0 01-41.06 7.32q-20.49.04-35.86-8.92zm217.85-6.56q5.4 8.6 9.84 12.25v.38h-43.57v-.38c2-1.55 3.08-4.5 3.08-8.87q0-6.16-3.08-14.85l-1.75-4.62h-49.73l-1.74 4.62a40.69 40.69 0 00-3.08 14.66c0 4.5.9 7.51 2.7 9.06v.38h-40.49v-.38q4.44-3.85 9.74-12.34a95.34 95.34 0 009-18.9l27.57-79.43a30.09 30.09 0 001.74-9.45 19.4 19.4 0 00-1.54-7.9 14.11 14.11 0 00-3.67-5.21v-.38h51.09v.38a16.25 16.25 0 00-3.66 5.31 18.56 18.56 0 00-1.54 7.8 30.35 30.35 0 001.73 9.45l28.34 79.43a94.39 94.39 0 009.02 18.99zM939.9 272.1q-2.5 8.77-7.14 21.69l-7.13 20.43h37l-7.14-20.43q-4.82-13.89-7.32-22.18a118 118 0 01-3.86-18.12h-.77a117.69 117.69 0 01-3.64 18.61zm86.18 89.36q4.23-2.9 7.32-10.22t3.09-18.32V255.8a49.53 49.53 0 00-2.7-16.29q-2.7-7.8-7.71-11.28v-.38h43.76a29.61 29.61 0 001.93 7.23 81.71 81.71 0 006 11.28l27.74 46.64q8.1 13.69 17.74 38.18h.77a230.51 230.51 0 01-3.09-39.72v-34.7q0-11.17-2.79-18.51t-7-10v-.38h44.54v.38q-4.25 2.72-7.33 10.13t-3.09 18.41v76.15q0 11 3.09 18.41t7.33 10.13v.38H1115a136.36 136.36 0 00-9.64-18.31l-27.19-44.15a191.27 191.27 0 01-11.17-20.75 229.21 229.21 0 01-8.87-23.23h-.77q2.12 12.54 2.79 22.56t.68 22.17v32.77q0 11.19 2.8 18.51t7 10v.38h-44.53zm156.16 0q4.24-2.9 7.33-10.22t3.08-18.32v-76.15q0-11.17-3.08-18.41t-7.33-10.13v-.38h47.43v.38q-4.25 2.9-7.33 10.22t-3.08 18.32v76.15q0 11.19 3.08 18.41t7.33 10.13v.38h-47.43zm91.29 1.25q-9.93-2-16.1-5.69l-3.28-32.39.39-.19q8.1 10.8 17.45 15.52a45.69 45.69 0 0020.92 4.72q23.89 0 23.9-17.35a17 17 0 00-3.27-10.51 25.59 25.59 0 00-8.2-7 134.43 134.43 0 00-13.4-6.17 127.68 127.68 0 01-18.41-9 37.82 37.82 0 01-12-12.24q-5-7.91-5-20.44a32.65 32.65 0 015.49-18.22 38.33 38.33 0 0115.91-13.39q10.41-5 24.87-5a120.39 120.39 0 0130.27 4l2.5 31.62h-.38q-5.79-8.87-13.4-12.34a40.76 40.76 0 00-17.06-3.47q-22.17 0-22.17 14.85a13.6 13.6 0 003 8.87A24.31 24.31 0 001293 275q4.53 2.42 12.82 5.88a134.17 134.17 0 0119.28 9.45 40.5 40.5 0 0112.9 13.1q5.4 8.47 5.4 22a37.21 37.21 0 01-5.5 20.05q-5.49 8.88-16.48 14.08t-26.61 5.2a106.54 106.54 0 01-21.28-2.05zm186.92-101.12l-.39.19a28.74 28.74 0 00-25.06-14.27h-14.46v83.87q0 11.76 3.37 19.57t8.39 10.51v.38h-49.94v-.38q4.64-2.7 8.2-10.7t3.56-19.38v-83.87h-14.65a28.74 28.74 0 00-25.06 14.27l-.39-.19 3.28-35.28a204.17 204.17 0 0026.41 1.54h47a204.28 204.28 0 0026.41-1.54z"/></g></g></svg>