<svg xmlns="http://www.w3.org/2000/svg" viewBox="0 0 196.5 205.75"><defs><linearGradient id="linear-gradient" x1="56.83" y1="100.03" x2="139.67" y2="17.19" gradientUnits="userSpaceOnUse"><stop offset="0" stop-color="#16b8fc"/><stop offset="1" stop-color="#da0128"/></linearGradient><style>.cls-1{fill:#fff}</style></defs><g id="Layer_2" data-name="Layer 2"><g id="Layer_1-2" data-name="Layer 1"><path class="cls-1" d="M96.29 32.09l9.48 20.14a20.92 20.92 0 005.88-5.12L98.74 15.77 82.23 50.39a20.71 20.71 0 004 2.57zm19.58 37.53l-.22.15 15.18 23.57L121 65.5a43.86 43.86 0 01-5.13 4.12zm-41.19-3.27L63 90.85l15.73-21.92c-.65-.36-1.28-.74-1.9-1.13s-1.45-.94-2.15-1.45z"/><path class="cls-1" d="M124.23 37.47a27.67 27.67 0 00-11-17 .32.32 0 00-.4.49A23.83 23.83 0 1177.52 24a.32.32 0 000-.44.33.33 0 00-.42 0 27.78 27.78 0 1047.18 13.86z"/><path d="M156.23 50.14a58.6 58.6 0 10-49.51 66.44 58.68 58.68 0 0049.51-66.44zm-50.49 59.8a51.88 51.88 0 1143.85-58.83 51.94 51.94 0 01-43.85 58.83z" fill="url(#linear-gradient)"/><path class="cls-1" d="M38.68 157.07v6.2h-2.12v-15.94h4.89c3.38 0 5.42 1.82 5.42 4.87s-2 4.87-5.42 4.87zm0-7.95v6.16h2.88a2.86 2.86 0 003.14-3.08c0-1.93-1.24-3.08-3.32-3.08zm21.54-1.79c3.49 0 5.6 1.82 5.6 4.87a4.57 4.57 0 01-3.26 4.47l3.61 6.6H63.8L60.5 157h-3.32v6.24h-2.12v-15.91zm-3 1.79v6.16h3.15c2.1 0 3.36-1.15 3.36-3.08s-1.33-3.08-3.54-3.08zm24.2-2.06a8.24 8.24 0 11-8.17 8.24 8.1 8.1 0 018.17-8.24zm0 14.5a6.27 6.27 0 10-6-6.26 6 6 0 006 6.26zm20.58-2.39c0 2.81-1.15 4.36-3.87 4.36a4.59 4.59 0 01-2.09-.44v-1.93a3.75 3.75 0 001.86.47 1.82 1.82 0 002-2.08v-12.22h2.1zm9.48 4.1v-15.94h9.78v1.79h-7.66v5.18h6.46v1.8h-6.46v5.37h8v1.8zm29.88-13.04a10.47 10.47 0 00-4.74-1.2 6.27 6.27 0 000 12.53 10.63 10.63 0 004.85-1.17v2a10.27 10.27 0 01-4.85 1.13 8.24 8.24 0 110-16.47 10 10 0 014.74 1.16zm13.72-1.11v14.15H153v-14.15h-4.84v-1.79H160v1.79zM25.61 202.4a10.49 10.49 0 002 2.46v.07h-8.76v-.07a2.12 2.12 0 00.62-1.78 9.16 9.16 0 00-.62-3l-.35-.93h-10l-.35.93a8.12 8.12 0 00-.58 2.92 2.37 2.37 0 00.54 1.82v.07H0v-.07a11.34 11.34 0 002-2.48 18.87 18.87 0 001.8-3.78l5.52-15.92a6 6 0 00.35-1.89 3.78 3.78 0 00-.31-1.58 2.9 2.9 0 00-.73-1.05v-.07h10.18v.07a3.25 3.25 0 00-.73 1.07 3.65 3.65 0 00-.31 1.56 6 6 0 00.35 1.89l5.68 15.96a18.27 18.27 0 001.81 3.8zM12.67 187c-.33 1.17-.81 2.62-1.43 4.35l-1.43 4.09h7.42l-1.43-4.14q-1-2.79-1.47-4.44a24.26 24.26 0 01-.77-3.64h-.16a23.46 23.46 0 01-.73 3.78zM54 204.24v.08l-7.92 1.43a21.76 21.76 0 00-2-4.29l-6-10.24H40a5.72 5.72 0 003.86-1.14 4.57 4.57 0 001.32-3.65 4.34 4.34 0 00-1.36-3.36 5.36 5.36 0 00-3.82-1.2h-2.7v17.38a9.69 9.69 0 00.57 3.54 4.69 4.69 0 001.36 2v.07h-9.29v-.07a4.36 4.36 0 001.47-2 9.69 9.69 0 00.61-3.69v-15.37a9.2 9.2 0 00-.61-3.58 4.43 4.43 0 00-1.47-2v-.07h11a10.82 10.82 0 017.18 2.18 7.38 7.38 0 012.59 6 8.25 8.25 0 01-1.37 4.92 7.39 7.39 0 01-3.88 2.73l3.54 5.81a10 10 0 005 4.52zm7.5-.52a12.17 12.17 0 01-4.75-4.95 16.19 16.19 0 01.13-14.58 12.11 12.11 0 015.12-4.92 16.22 16.22 0 017.65-1.72 24.13 24.13 0 016.8 1l.55 6.65h-.08a7.48 7.48 0 00-3.11-2.7 9.78 9.78 0 00-4.27-.93 8.15 8.15 0 00-6.39 2.61 10.23 10.23 0 00-2.34 7.09 11.7 11.7 0 002.19 7.37 7.25 7.25 0 006.09 2.78 10.55 10.55 0 005-1.1 11.57 11.57 0 003.67-3.23h.08l-.93 6.92a24.87 24.87 0 01-8.23 1.46 14.09 14.09 0 01-7.18-1.75zm43.65-1.32a10.24 10.24 0 002 2.46v.07h-8.76v-.07a2.12 2.12 0 00.61-1.78 9.11 9.11 0 00-.61-3l-.35-.93h-10l-.34.93a7.92 7.92 0 00-.62 2.93 2.37 2.37 0 00.54 1.82v.07h-8.08v-.07a11.34 11.34 0 001.95-2.48 19.41 19.41 0 001.79-3.78l5.53-15.92a6 6 0 00.34-1.89 3.94 3.94 0 00-.3-1.58 2.91 2.91 0 00-.74-1.05v-.07h10.24v.07a3.26 3.26 0 00-.74 1.07 3.81 3.81 0 00-.3 1.56 6 6 0 00.34 1.89l5.68 15.92a18.81 18.81 0 001.82 3.83zM92.21 187c-.34 1.17-.81 2.62-1.43 4.35l-1.43 4.09h7.41l-1.42-4.09q-1-2.79-1.47-4.44a23.05 23.05 0 01-.78-3.64h-.15a23.46 23.46 0 01-.73 3.73zm17.26 17.86a4.51 4.51 0 001.47-2.05 9.53 9.53 0 00.62-3.67v-15.45a10 10 0 00-.54-3.27 4.41 4.41 0 00-1.55-2.26v-.07h8.77a5.73 5.73 0 00.39 1.45 15.41 15.41 0 001.2 2.26l5.56 9.34a56.24 56.24 0 013.55 7.65h.16a45.38 45.38 0 01-.62-8v-7a10.62 10.62 0 00-.56-3.71 4.07 4.07 0 00-1.41-2v-.07h8.92v.07a4.34 4.34 0 00-1.47 2 9.69 9.69 0 00-.61 3.69v15.26a9.69 9.69 0 00.61 3.69 4.29 4.29 0 001.47 2v.07h-8.15a27.61 27.61 0 00-1.93-3.67l-5.45-8.84a38.55 38.55 0 01-2.24-4.15 46.46 46.46 0 01-1.77-4.66h-.16c.28 1.68.47 3.18.56 4.52s.14 2.82.14 4.44V199a10.39 10.39 0 00.56 3.71 3.91 3.91 0 001.41 2v.07h-8.93zm31.29 0a4.51 4.51 0 001.47-2.05 9.53 9.53 0 00.62-3.67v-15.26a9.53 9.53 0 00-.62-3.69 4.55 4.55 0 00-1.47-2v-.07h9.5v.07a4.57 4.57 0 00-1.46 2.05 9.34 9.34 0 00-.62 3.67v15.26a9.35 9.35 0 00.62 3.69 4.61 4.61 0 001.46 2v.07h-9.5zm18.29.25a10.38 10.38 0 01-3.22-1.14l-.66-6.49h.08a10.24 10.24 0 003.49 3.11 9.2 9.2 0 004.2.95q4.78 0 4.79-3.48a3.4 3.4 0 00-.66-2.11 5.46 5.46 0 00-1.64-1.41 27.53 27.53 0 00-2.69-1.23 25.53 25.53 0 01-3.69-1.8 7.24 7.24 0 01-3.42-6.55 6.5 6.5 0 011.11-3.65 7.63 7.63 0 013.18-2.68 11.39 11.39 0 015-1 24.2 24.2 0 016.06.81l.5 6.33h-.08a6.44 6.44 0 00-2.68-2.47 8.23 8.23 0 00-3.42-.7c-3 0-4.44 1-4.44 3a2.74 2.74 0 00.6 1.78 5 5 0 001.5 1.21c.61.32 1.47.72 2.57 1.18a27 27 0 013.87 1.89 8.22 8.22 0 012.58 2.63 8 8 0 011.09 4.4 7.23 7.23 0 01-4.41 6.84 12.3 12.3 0 01-5.33 1 21.43 21.43 0 01-4.28-.42zm37.45-20.26h-.07a5.76 5.76 0 00-5-2.86h-2.89v16.8a9.92 9.92 0 00.67 3.92 4.14 4.14 0 001.68 2.11v.07h-10v-.07a4.52 4.52 0 001.64-2.15 9.43 9.43 0 00.72-3.88V182h-2.94a5.61 5.61 0 00-3 .81 5.54 5.54 0 00-2 2h-.08l.66-7.07a42 42 0 005.29.31h9.42a42.16 42.16 0 005.3-.31z"/></g></g></svg>