<svg xmlns="http://www.w3.org/2000/svg" viewBox="0 0 34 30"><defs><style>.cls-1{fill:#292929;}</style></defs><g id="Layer_2" data-name="Layer 2"><g id="Icons"><rect class="cls-1" x="33" width="1" height="30"/><path class="cls-1" d="M12,3A12,12,0,1,0,24,15,12,12,0,0,0,12,3Zm.19,19.86a1.45,1.45,0,0,1-1.51-1.51,1.43,1.43,0,0,1,1.51-1.51,1.47,1.47,0,0,1,1.51,1.51A1.49,1.49,0,0,1,12.19,22.86Zm1.73-6.56a.76.76,0,0,0-.41.79v.41a1.15,1.15,0,0,1-1.3,1.15c-.68,0-1.32-.32-1.32-1.15v-.75a2.48,2.48,0,0,1,1.66-2.53,2.08,2.08,0,0,0,1.39-1.94,1.71,1.71,0,0,0-1.75-1.89A3.35,3.35,0,0,0,10,11.45a1.25,1.25,0,0,1-.87.32,1.38,1.38,0,0,1-1.32-1.21,1.77,1.77,0,0,1,.7-1.22,5.15,5.15,0,0,1,3.66-1.47,4.22,4.22,0,0,1,4.43,4.41A4.28,4.28,0,0,1,13.92,16.3Z"/></g></g></svg>