<svg xmlns="http://www.w3.org/2000/svg" viewBox="0 0 34.01 30"><defs><style>.cls-1,.cls-2{fill:#292929;}.cls-1{fill-rule:evenodd;}</style></defs><g id="Layer_2" data-name="Layer 2"><g id="Icons"><path class="cls-1" d="M7,14.9.16,21.74A2.17,2.17,0,0,1,0,20.93V9.19Z"/><path class="cls-1" d="M21.41,22.81a1.92,1.92,0,0,1-.48.15,1.58,1.58,0,0,1-.38,0H2.07a2,2,0,0,1-.82-.17l7-6.95,1,.78a3.43,3.43,0,0,0,4.32,0l1-.8,6,6Z"/><path class="cls-1" d="M22.62,9.19V20.93a2.2,2.2,0,0,1-.15.77l-6.82-6.82Z"/><path class="cls-1" d="M22,7.55l-7.51,6.12-1.2,1-.43.36a2.38,2.38,0,0,1-3,0l-.4-.33-1.2-1L.67,7.55A2.06,2.06,0,0,1,2.07,7H20.55A2.06,2.06,0,0,1,22,7.55Z"/><rect class="cls-2" x="33.01" width="1" height="30"/></g></g></svg>