<svg xmlns="http://www.w3.org/2000/svg" viewBox="0 0 420.09 420.09">
  <defs>
    <style>
      .cls-1 {
        fill: #fff;
      }
    </style>
  </defs>
  <g id="Layer_2" data-name="Layer 2">
    <g id="Layer_1-2" data-name="Layer 1">
      <path class="cls-1"
        d="M203,115l34,72.18a75.58,75.58,0,0,0,21.07-18.35L211.79,56.53,152.62,180.62a73.91,73.91,0,0,0,14.43,9.21Z" />
      <path class="cls-1" d="M273.19,249.53l-.8.53,54.43,84.5-35.3-99.78A154.47,154.47,0,0,1,273.19,249.53Z" />
      <path class="cls-1"
        d="M125.57,237.8,83.73,325.63l56.33-78.57c-2.3-1.28-4.57-2.63-6.79-4.05C130.64,241.39,128.06,239.63,125.57,237.8Z" />
      <path class="cls-1"
        d="M303.15,134.32a99.13,99.13,0,0,0-39.26-61.08A1.14,1.14,0,0,0,262.45,75,85.42,85.42,0,1,1,135.74,86.1a1.12,1.12,0,0,0-.2-1.57,1.13,1.13,0,0,0-1.49.1,99.55,99.55,0,1,0,169.1,49.69Z" />
      <path class="cls-1"
        d="M417.87,179.73C401.16,65.13,294.32-14.45,179.73,2.2S-14.45,125.75,2.2,240.36,125.75,434.59,240.4,417.88,434.58,294.32,417.87,179.73Zm-181,214.34C135.4,408.86,40.78,338.35,26,236.88S81.79,40.81,183.2,26,379.27,81.79,394.07,183.2,338.35,379.27,236.88,394.07Z" />
    </g>
  </g>
</svg>