<svg xmlns="http://www.w3.org/2000/svg" xmlns:xlink="http://www.w3.org/1999/xlink" viewBox="0 0 196.5 205.75"><defs><style>.cls-1{fill:#fff;}.cls-2{fill:url(#linear-gradient);}</style><linearGradient id="linear-gradient" x1="56.83" y1="100.03" x2="139.67" y2="17.19" gradientUnits="userSpaceOnUse"><stop offset="0" stop-color="#16b8fc"/><stop offset="1" stop-color="#da0128"/></linearGradient></defs><g id="Layer_2" data-name="Layer 2"><g id="Layer_1-2" data-name="Layer 1"><path class="cls-1" d="M96.29,32.09l9.48,20.14a20.92,20.92,0,0,0,5.88-5.12L98.74,15.77,82.23,50.39a20.71,20.71,0,0,0,4,2.57Z"/><path class="cls-1" d="M115.87,69.62l-.22.15,15.18,23.57L121,65.5A43.86,43.86,0,0,1,115.87,69.62Z"/><path class="cls-1" d="M74.68,66.35,63,90.85,78.73,68.93c-.65-.36-1.28-.74-1.9-1.13S75.38,66.86,74.68,66.35Z"/><path class="cls-1" d="M124.23,37.47a27.67,27.67,0,0,0-11-17,.32.32,0,0,0-.4.49A23.83,23.83,0,1,1,77.52,24a.32.32,0,0,0,0-.44.33.33,0,0,0-.42,0,27.78,27.78,0,1,0,47.18,13.86Z"/><path class="cls-2" d="M156.23,50.14a58.6,58.6,0,1,0-49.51,66.44A58.68,58.68,0,0,0,156.23,50.14Zm-50.49,59.8a51.88,51.88,0,1,1,43.85-58.83A51.94,51.94,0,0,1,105.74,109.94Z"/><path class="cls-1" d="M38.68,157.07v6.2H36.56V147.33h4.89c3.38,0,5.42,1.82,5.42,4.87s-2,4.87-5.42,4.87Zm0-7.95v6.16h2.88a2.86,2.86,0,0,0,3.14-3.08c0-1.93-1.24-3.08-3.32-3.08Z"/><path class="cls-1" d="M60.22,147.33c3.49,0,5.6,1.82,5.6,4.87a4.57,4.57,0,0,1-3.26,4.47l3.61,6.6H63.8L60.5,157H57.18v6.24H55.06V147.33Zm-3,1.79v6.16h3.15c2.1,0,3.36-1.15,3.36-3.08s-1.33-3.08-3.54-3.08Z"/><path class="cls-1" d="M81.42,147.06a8.24,8.24,0,1,1-8.17,8.24A8.1,8.1,0,0,1,81.42,147.06Zm0,14.5a6.27,6.27,0,1,0-6-6.26A6,6,0,0,0,81.42,161.56Z"/><path class="cls-1" d="M102,159.17c0,2.81-1.15,4.36-3.87,4.36a4.59,4.59,0,0,1-2.09-.44v-1.93a3.75,3.75,0,0,0,1.86.47,1.82,1.82,0,0,0,2-2.08V147.33H102Z"/><path class="cls-1" d="M111.48,163.27V147.33h9.78v1.79H113.6v5.18h6.46v1.8H113.6v5.37h8v1.8Z"/><path class="cls-1" d="M141.36,150.23a10.47,10.47,0,0,0-4.74-1.2,6.27,6.27,0,0,0,0,12.53,10.63,10.63,0,0,0,4.85-1.17v2a10.27,10.27,0,0,1-4.85,1.13,8.24,8.24,0,1,1,0-16.47,10,10,0,0,1,4.74,1.16Z"/><path class="cls-1" d="M155.08,149.12v14.15H153V149.12h-4.84v-1.79H160v1.79Z"/><path class="cls-1" d="M25.61,202.4a10.49,10.49,0,0,0,2,2.46v.07H18.85v-.07a2.12,2.12,0,0,0,.62-1.78,9.16,9.16,0,0,0-.62-3l-.35-.93h-10l-.35.93A8.12,8.12,0,0,0,7.57,203a2.37,2.37,0,0,0,.54,1.82v.07H0v-.07a11.34,11.34,0,0,0,2-2.48,18.87,18.87,0,0,0,1.8-3.78l5.52-15.92a6,6,0,0,0,.35-1.89,3.78,3.78,0,0,0-.31-1.58,2.9,2.9,0,0,0-.73-1.05v-.07H18.81v.07a3.25,3.25,0,0,0-.73,1.07,3.65,3.65,0,0,0-.31,1.56,6,6,0,0,0,.35,1.89L23.8,198.6A18.27,18.27,0,0,0,25.61,202.4ZM12.67,187c-.33,1.17-.81,2.62-1.43,4.35l-1.43,4.09h7.42L15.8,191.3q-1-2.79-1.47-4.44a24.26,24.26,0,0,1-.77-3.64H13.4A23.46,23.46,0,0,1,12.67,187Z"/><path class="cls-1" d="M54,204.24v.08l-7.92,1.43a21.76,21.76,0,0,0-2-4.29l-6-10.24H40a5.72,5.72,0,0,0,3.86-1.14,4.57,4.57,0,0,0,1.32-3.65,4.34,4.34,0,0,0-1.36-3.36,5.36,5.36,0,0,0-3.82-1.2l-2.7,0v17.38a9.69,9.69,0,0,0,.57,3.54,4.69,4.69,0,0,0,1.36,2v.07H29.94v-.07a4.36,4.36,0,0,0,1.47-2,9.69,9.69,0,0,0,.61-3.69V183.73a9.2,9.2,0,0,0-.61-3.58,4.43,4.43,0,0,0-1.47-2v-.07h11a10.82,10.82,0,0,1,7.18,2.18,7.38,7.38,0,0,1,2.59,6,8.25,8.25,0,0,1-1.37,4.92,7.39,7.39,0,0,1-3.88,2.73L49,199.72A10,10,0,0,0,54,204.24Z"/><path class="cls-1" d="M61.5,203.72a12.17,12.17,0,0,1-4.75-4.95,16.19,16.19,0,0,1,.13-14.58A12.11,12.11,0,0,1,62,179.27a16.22,16.22,0,0,1,7.65-1.72,24.13,24.13,0,0,1,6.8,1L77,185.2l-.08,0a7.48,7.48,0,0,0-3.11-2.7,9.78,9.78,0,0,0-4.27-.93,8.15,8.15,0,0,0-6.39,2.61,10.23,10.23,0,0,0-2.34,7.09A11.7,11.7,0,0,0,63,198.64a7.25,7.25,0,0,0,6.09,2.78,10.55,10.55,0,0,0,5-1.1,11.57,11.57,0,0,0,3.67-3.23l.08,0-.93,6.92a24.87,24.87,0,0,1-8.23,1.46A14.09,14.09,0,0,1,61.5,203.72Z"/><path class="cls-1" d="M105.15,202.4a10.24,10.24,0,0,0,2,2.46v.07H98.39v-.07a2.12,2.12,0,0,0,.61-1.78,9.11,9.11,0,0,0-.61-3l-.35-.93h-10l-.34.93a7.92,7.92,0,0,0-.62,2.93,2.37,2.37,0,0,0,.54,1.82v.07H79.54v-.07a11.34,11.34,0,0,0,1.95-2.48,19.41,19.41,0,0,0,1.79-3.78l5.53-15.92a6,6,0,0,0,.34-1.89,3.94,3.94,0,0,0-.3-1.58,2.91,2.91,0,0,0-.74-1.05v-.07H98.35v.07a3.26,3.26,0,0,0-.74,1.07,3.81,3.81,0,0,0-.3,1.56,6,6,0,0,0,.34,1.89l5.68,15.92A18.81,18.81,0,0,0,105.15,202.4ZM92.21,187c-.34,1.17-.81,2.62-1.43,4.35l-1.43,4.09h7.41l-1.42-4.09q-1-2.79-1.47-4.44a23.05,23.05,0,0,1-.78-3.64h-.15A23.46,23.46,0,0,1,92.21,187Z"/><path class="cls-1" d="M109.47,204.86a4.51,4.51,0,0,0,1.47-2.05,9.53,9.53,0,0,0,.62-3.67V183.69a10,10,0,0,0-.54-3.27,4.41,4.41,0,0,0-1.55-2.26v-.07h8.77a5.73,5.73,0,0,0,.39,1.45,15.41,15.41,0,0,0,1.2,2.26l5.56,9.34a56.24,56.24,0,0,1,3.55,7.65h.16a45.38,45.38,0,0,1-.62-8v-7a10.62,10.62,0,0,0-.56-3.71,4.07,4.07,0,0,0-1.41-2v-.07h8.92v.07a4.34,4.34,0,0,0-1.47,2,9.69,9.69,0,0,0-.61,3.69v15.26a9.69,9.69,0,0,0,.61,3.69,4.29,4.29,0,0,0,1.47,2v.07h-8.15a27.61,27.61,0,0,0-1.93-3.67l-5.45-8.84a38.55,38.55,0,0,1-2.24-4.15,46.46,46.46,0,0,1-1.77-4.66h-.16c.28,1.68.47,3.18.56,4.52s.14,2.82.14,4.44v6.57a10.39,10.39,0,0,0,.56,3.71,3.91,3.91,0,0,0,1.41,2v.07h-8.93Z"/><path class="cls-1" d="M140.76,204.86a4.51,4.51,0,0,0,1.47-2.05,9.53,9.53,0,0,0,.62-3.67V183.88a9.53,9.53,0,0,0-.62-3.69,4.55,4.55,0,0,0-1.47-2v-.07h9.5v.07a4.57,4.57,0,0,0-1.46,2.05,9.34,9.34,0,0,0-.62,3.67v15.26a9.35,9.35,0,0,0,.62,3.69,4.61,4.61,0,0,0,1.46,2v.07h-9.5Z"/><path class="cls-1" d="M159.05,205.11a10.38,10.38,0,0,1-3.22-1.14l-.66-6.49.08,0a10.24,10.24,0,0,0,3.49,3.11,9.2,9.2,0,0,0,4.2.95q4.78,0,4.79-3.48a3.4,3.4,0,0,0-.66-2.11,5.46,5.46,0,0,0-1.64-1.41,27.53,27.53,0,0,0-2.69-1.23,25.53,25.53,0,0,1-3.69-1.8,7.24,7.24,0,0,1-3.42-6.55,6.5,6.5,0,0,1,1.11-3.65,7.63,7.63,0,0,1,3.18-2.68,11.39,11.39,0,0,1,5-1,24.2,24.2,0,0,1,6.06.81l.5,6.33h-.08a6.44,6.44,0,0,0-2.68-2.47,8.23,8.23,0,0,0-3.42-.7c-3,0-4.44,1-4.44,3a2.74,2.74,0,0,0,.6,1.78,5,5,0,0,0,1.5,1.21c.61.32,1.47.72,2.57,1.18a27,27,0,0,1,3.87,1.89,8.22,8.22,0,0,1,2.58,2.63,8,8,0,0,1,1.09,4.4,7.23,7.23,0,0,1-4.41,6.84,12.3,12.3,0,0,1-5.33,1A21.43,21.43,0,0,1,159.05,205.11Z"/><path class="cls-1" d="M196.5,184.85l-.07,0a5.76,5.76,0,0,0-5-2.86h-2.89v16.8a9.92,9.92,0,0,0,.67,3.92,4.14,4.14,0,0,0,1.68,2.11v.07h-10v-.07a4.52,4.52,0,0,0,1.64-2.15,9.43,9.43,0,0,0,.72-3.88V182h-2.94a5.61,5.61,0,0,0-3,.81,5.54,5.54,0,0,0-2,2l-.08,0,.66-7.07a42,42,0,0,0,5.29.31h9.42a42.16,42.16,0,0,0,5.3-.31Z"/></g></g></svg>